<?xml version="1.0" encoding="utf-8"?>
<!-- Generator: Adobe Illustrator 23.0.4, SVG Export Plug-In . SVG Version: 6.00 Build 0)  -->
<svg version="1.1" id="レイヤー_1" xmlns="http://www.w3.org/2000/svg" xmlns:xlink="http://www.w3.org/1999/xlink" x="0px"
	 y="0px" viewBox="0 0 841.9 595.3" style="enable-background:new 0 0 841.9 595.3;" xml:space="preserve">
<style type="text/css">
	.st0{fill:#E50012;}
	.st1{fill:#FFFFFF;stroke:#FFFFFF;stroke-width:2.7053;stroke-miterlimit:10;}
	.st2{fill:#FFFFFF;}
</style>
<g>
	<path d="M266.8,429h3.8v28.7h-3.8V429z"/>
	<path d="M273.5,437.7h3.5l1.6,6.8l1.6-6.8h3.2l-3,9.5l3.1,10.4h-3.6l-1.9-7.8l-2,7.8h-3.1l3.3-10.4L273.5,437.7z"/>
	<path d="M286.3,429h3.9c2.9,0,4.9,0.5,5.8,1.5c1,1,1.4,3.2,1.4,6.4v12.7c0,3.2-0.5,5.4-1.4,6.4c-1,1-2.9,1.6-5.8,1.6h-3.9V429z
		 M290,432v22.7h0.8c1.2,0,2-0.2,2.4-0.6s0.6-1.2,0.6-2.5v-16.5c0-1.3-0.2-2.1-0.6-2.5s-1.2-0.6-2.4-0.6H290z"/>
	<path d="M318.6,434.2v2.5h-3.7v-2.8c0-0.9-0.1-1.6-0.3-1.9c-0.2-0.4-0.6-0.6-1.1-0.6c-0.6,0-1,0.2-1.2,0.6s-0.4,1.2-0.4,2.4v1.4
		c0,1,0.5,2.2,1.5,3.6l0,0l3.5,5c0.7,1,1.2,1.9,1.5,2.7c0.2,0.7,0.4,1.6,0.4,2.5v1.9c0,2.2-0.5,3.8-1.4,4.9s-2.4,1.6-4.2,1.6
		c-1.9,0-3.2-0.4-4-1.3s-1.2-2.3-1.2-4.5v-2.8h3.8v2.9c0,1,0.1,1.7,0.4,2.1c0.2,0.4,0.6,0.6,1.2,0.6s1.1-0.2,1.3-0.7
		c0.2-0.4,0.4-1.3,0.4-2.7v-1.7c0-1.1-0.5-2.3-1.5-3.8c0-0.1-0.1-0.1-0.1-0.1l-3.7-5.4c-0.5-0.8-0.9-1.5-1.2-2.1
		c-0.2-0.7-0.4-1.4-0.4-2.1v-2c0-2,0.5-3.5,1.4-4.6c0.9-1,2.3-1.5,4.1-1.5c1.7,0,3,0.4,3.7,1.3C318.2,430.7,318.6,432.2,318.6,434.2
		z"/>
	<path d="M331.9,444.1v4.6h-6.6v3.9c0,1.2,0.1,2,0.3,2.4c0.2,0.4,0.6,0.6,1.2,0.6s0.9-0.2,1.2-0.7c0.2-0.4,0.3-1.2,0.3-2.3v-1.7h3.5
		v1.3c0,2-0.4,3.5-1.2,4.5c-0.8,0.9-2.1,1.4-3.9,1.4c-1.9,0-3.3-0.5-4-1.4c-0.8-1-1.1-2.8-1.1-5.4v-7.2c0-2.6,0.4-4.4,1.1-5.4
		c0.8-1,2.1-1.5,4-1.5s3.2,0.5,3.9,1.5C331.5,439.7,331.9,441.5,331.9,444.1z M328.4,442.7c0-1.2-0.1-1.9-0.3-2.4
		c-0.2-0.4-0.6-0.6-1.2-0.6s-1,0.2-1.2,0.6s-0.3,1.2-0.3,2.4v3.6h3.1v-3.6H328.4z"/>
	<path d="M344.9,439.4c0.5-0.8,1-1.3,1.6-1.7c0.5-0.4,1.1-0.5,1.8-0.5c1.1,0,1.9,0.4,2.4,1.1s0.7,2,0.7,4v15.4h-3.5v-14.9
		c0-1-0.1-1.8-0.3-2.2c-0.2-0.4-0.6-0.6-1-0.6c-0.5,0-0.9,0.2-1.1,0.6s-0.3,1.2-0.3,2.2v14.9h-3.5v-14.9c0-1.1-0.1-1.8-0.3-2.2
		c-0.2-0.4-0.5-0.6-1-0.6s-0.9,0.2-1.1,0.7c-0.2,0.4-0.3,1.2-0.3,2.2v14.9h-3.5v-20h3.3l0.2,1.6c0.4-0.7,0.9-1.2,1.5-1.6
		c0.5-0.3,1.1-0.5,1.8-0.5c0.7,0,1.3,0.2,1.8,0.6C344.5,438.3,344.8,438.8,344.9,439.4z"/>
	<path d="M354.8,429h3.7v3.6h-3.7V429z M354.9,437.7h3.5v20h-3.5V437.7z"/>
	<path d="M372,442.3v15.4h-3.5v-14.9c0-1.1-0.1-1.8-0.3-2.2c-0.2-0.4-0.6-0.6-1.2-0.6c-0.5,0-0.9,0.2-1.2,0.6
		c-0.2,0.4-0.3,1.2-0.3,2.2v14.9H362v-20h3.3l0.2,1.6c0.4-0.7,0.9-1.2,1.5-1.6s1.2-0.5,1.8-0.5c1.2,0,2,0.4,2.5,1.1
		C371.8,439,372,440.4,372,442.3z"/>
	<path d="M385.4,442.6v15.1h-3.3l-0.2-1.6c-0.4,0.7-0.9,1.2-1.4,1.6s-1.2,0.5-1.8,0.5c-1.2,0-2.1-0.4-2.6-1.2
		c-0.5-0.8-0.8-2.1-0.8-3.8v-3.4c0-1.6,0.5-2.8,1.5-3.5s2.7-1.1,5.1-1.2v-2.3c0-1.2-0.1-2-0.3-2.4c-0.2-0.4-0.6-0.6-1.2-0.6
		c-0.5,0-0.9,0.2-1.1,0.6s-0.3,1-0.3,1.9v0.8h-3.3v-0.5c0-2,0.4-3.4,1.1-4.2c0.7-0.8,2-1.2,3.9-1.2c1.7,0,3,0.4,3.7,1.2
		C385.1,439.2,385.4,440.6,385.4,442.6z M381.9,447.5c-1.2,0.1-2,0.3-2.4,0.7c-0.4,0.4-0.6,1-0.6,2v2.5c0,1.1,0.1,1.8,0.4,2.3
		c0.2,0.4,0.6,0.6,1.2,0.6c0.5,0,0.9-0.2,1.2-0.6c0.2-0.4,0.3-1.2,0.3-2.3L381.9,447.5z"/>
	<path d="M396,437.4v3h-0.2c-1.2,0-2.1,0.3-2.6,0.8s-0.7,1.5-0.7,2.9v13.5H389v-20h3.3l0.2,1.6c0.4-0.7,0.9-1.1,1.4-1.5
		c0.5-0.3,1.1-0.5,1.7-0.5c0.1,0,0.1,0,0.2,0C395.9,437.4,396,437.4,396,437.4z"/>
	<path d="M397.9,453.8h3.7l-2.2,7.2h-2.7L397.9,453.8z"/>
	<path d="M422,434.2v2.5h-3.7v-2.8c0-0.9-0.1-1.6-0.3-1.9c-0.2-0.4-0.6-0.6-1.1-0.6c-0.6,0-1,0.2-1.2,0.6s-0.4,1.2-0.4,2.4v1.4
		c0,1,0.5,2.2,1.5,3.6l0,0l3.5,5c0.7,1,1.2,1.9,1.5,2.7c0.2,0.7,0.4,1.6,0.4,2.5v1.9c0,2.2-0.5,3.8-1.4,4.9s-2.4,1.6-4.2,1.6
		c-1.9,0-3.2-0.4-4-1.3s-1.2-2.3-1.2-4.5v-2.8h3.8v2.9c0,1,0.1,1.7,0.4,2.1c0.2,0.4,0.6,0.6,1.2,0.6s1.1-0.2,1.3-0.7
		c0.2-0.4,0.4-1.3,0.4-2.7v-1.7c0-1.1-0.5-2.3-1.5-3.8c0-0.1-0.1-0.1-0.1-0.1l-3.7-5.4c-0.5-0.8-0.9-1.5-1.2-2.1
		c-0.2-0.7-0.4-1.4-0.4-2.1v-2c0-2,0.5-3.5,1.4-4.6c0.9-1,2.3-1.5,4.1-1.5c1.7,0,3,0.4,3.7,1.3C421.7,430.7,422,432.2,422,434.2z"/>
	<path d="M435.4,444.1v4.6h-6.6v3.9c0,1.2,0.1,2,0.3,2.4c0.2,0.4,0.6,0.6,1.2,0.6s0.9-0.2,1.2-0.7c0.2-0.4,0.3-1.2,0.3-2.3v-1.7h3.5
		v1.3c0,2-0.4,3.5-1.2,4.5c-0.8,0.9-2.1,1.4-3.9,1.4c-1.9,0-3.3-0.5-4-1.4c-0.8-1-1.1-2.8-1.1-5.4v-7.2c0-2.6,0.4-4.4,1.1-5.4
		c0.8-1,2.1-1.5,4-1.5s3.2,0.5,3.9,1.5C435,439.7,435.4,441.5,435.4,444.1z M431.8,442.7c0-1.2-0.1-1.9-0.3-2.4
		c-0.2-0.4-0.6-0.6-1.2-0.6s-1,0.2-1.2,0.6s-0.3,1.2-0.3,2.4v3.6h3.1v-3.6H431.8z"/>
	<path d="M448.9,442.3v15.4h-3.5v-14.9c0-1.1-0.1-1.8-0.3-2.2c-0.2-0.4-0.6-0.6-1.2-0.6c-0.5,0-0.9,0.2-1.2,0.6
		c-0.2,0.4-0.3,1.2-0.3,2.2v14.9h-3.5v-20h3.3l0.2,1.6c0.4-0.7,0.9-1.2,1.5-1.6s1.2-0.5,1.8-0.5c1.2,0,2,0.4,2.5,1.1
		C448.6,439,448.9,440.4,448.9,442.3z"/>
	<path d="M461.4,442.5v1H458v-1c0-1.1-0.1-1.9-0.3-2.2c-0.2-0.3-0.5-0.5-1-0.5c-0.4,0-0.8,0.2-0.9,0.5c-0.2,0.3-0.3,0.8-0.3,1.6v0.8
		c0,0.3,0.1,0.7,0.3,1.1c0.2,0.4,0.6,0.9,1.1,1.5l2.9,3c0.6,0.7,1.1,1.3,1.4,1.9s0.4,1.1,0.4,1.7v1.6c0,1.6-0.4,2.9-1.2,3.7
		c-0.8,0.8-2,1.2-3.7,1.2s-3-0.4-3.7-1.2c-0.7-0.8-1-2.2-1-4.3v-1.4h3.3v1.6c0,1.1,0.1,1.8,0.3,2.2c0.2,0.4,0.5,0.6,1,0.6
		c0.6,0,1-0.2,1.2-0.5c0.2-0.4,0.3-0.9,0.3-1.8v-0.8c0-0.5-0.1-0.9-0.3-1.4c-0.2-0.5-0.6-1-1.1-1.5l-2.8-2.9
		c-0.8-0.8-1.3-1.5-1.5-2.1c-0.2-0.5-0.3-1.1-0.3-1.8V442c0-1.5,0.4-2.7,1.2-3.5c0.8-0.8,2-1.2,3.6-1.2s2.8,0.4,3.5,1.2
		C461.1,439.2,461.4,440.6,461.4,442.5z"/>
	<path d="M464.8,429h3.5v10.3c0.4-0.7,0.9-1.2,1.5-1.6s1.2-0.5,1.8-0.5c1.2,0,2,0.4,2.5,1.1s0.7,2.1,0.7,4v15.4h-3.5v-14.9
		c0-1.1-0.1-1.8-0.3-2.2c-0.2-0.4-0.6-0.6-1.2-0.6c-0.5,0-0.9,0.2-1.2,0.6c-0.2,0.4-0.3,1.2-0.3,2.2v14.9h-3.5V429z"/>
	<path d="M478.4,437.7h3.5v14.8c0,1.1,0.1,1.8,0.3,2.2c0.2,0.4,0.6,0.6,1.2,0.6c0.5,0,0.9-0.2,1.2-0.6s0.3-1.2,0.3-2.2v-14.8h3.5v20
		h-3.3l-0.2-1.6c-0.4,0.7-0.9,1.2-1.5,1.6c-0.6,0.3-1.2,0.5-1.9,0.5c-1.2,0-2-0.4-2.5-1.1s-0.7-2-0.7-3.9v-15.5H478.4z"/>
	<path d="M499.4,429h3.7v22.2c0,1.6,0.1,2.7,0.4,3.2s0.8,0.8,1.5,0.8s1.2-0.3,1.5-0.8s0.4-1.6,0.4-3.2V429h3.8v21.4
		c0,2.9-0.4,5-1.3,6.1c-0.8,1.1-2.4,1.6-4.5,1.6s-3.5-0.6-4.3-1.7s-1.2-3.1-1.2-6V429z"/>
	<path d="M524.6,442.3v15.4h-3.5v-14.9c0-1.1-0.1-1.8-0.3-2.2c-0.2-0.4-0.6-0.6-1.2-0.6c-0.5,0-0.9,0.2-1.2,0.6
		c-0.2,0.4-0.3,1.2-0.3,2.2v14.9h-3.5v-20h3.3l0.2,1.6c0.4-0.7,0.9-1.2,1.5-1.6s1.2-0.5,1.8-0.5c1.2,0,2,0.4,2.5,1.1
		S524.6,440.4,524.6,442.3z"/>
	<path d="M528.1,429h3.7v3.6h-3.7V429z M528.2,437.7h3.5v20h-3.5V437.7z"/>
	<path d="M533.9,437.7h3.4l1.7,16.4h0.2l1.9-16.4h3.1l-3,20h-4.3L533.9,437.7z"/>
	<path d="M546.4,453.8h3.4v3.9h-3.4V453.8z"/>
</g>
<g>
	<circle class="st0" cx="408.3" cy="256.8" r="154.2"/>
	<g>
		<path class="st1" d="M288,298.8H286V280h-4.7V278h11.5v1.9H288V298.8z"/>
		<path class="st1" d="M312,299.2c-3,0-5.5-1-7.7-3.1c-2.2-2.1-3.2-4.6-3.2-7.5c0-3,1.1-5.6,3.2-7.7c2.1-2.1,4.7-3.2,7.7-3.2
			s5.6,1,7.8,3.1c2.2,2,3.3,4.5,3.3,7.5c0,3-1.1,5.6-3.2,7.8C317.5,298.2,315,299.2,312,299.2z M320.9,288.4c0-2.4-0.9-4.5-2.7-6.1
			c-1.8-1.7-3.8-2.5-6.3-2.5c-2.4,0-4.5,0.9-6.2,2.6c-1.7,1.7-2.6,3.8-2.6,6.2c0,2.4,0.9,4.4,2.6,6.1c1.7,1.7,3.8,2.6,6.2,2.6
			c2.5,0,4.6-0.8,6.3-2.6C320,292.9,320.9,290.8,320.9,288.4z"/>
		<path class="st1" d="M348.1,298.8h-2.5l-7.1-9l-2.7,3.4v5.7h-2.1V278h2.2v11.8l9.5-11.8h2.6l-8.2,10.1L348.1,298.8z"/>
		<path class="st1" d="M367.3,298.8h-2.1v-7l-7-13.8h2.2l5.9,11.7l5.9-11.7h2.3l-7.1,13.8V298.8z"/>
		<path class="st1" d="M393.6,299.2c-3,0-5.5-1-7.7-3.1c-2.2-2.1-3.2-4.6-3.2-7.5c0-3,1.1-5.6,3.2-7.7c2.1-2.1,4.7-3.2,7.7-3.2
			s5.6,1,7.8,3.1c2.2,2,3.3,4.5,3.3,7.5c0,3-1.1,5.6-3.2,7.8C399.1,298.2,396.6,299.2,393.6,299.2z M402.5,288.4
			c0-2.4-0.9-4.5-2.7-6.1c-1.8-1.7-3.8-2.5-6.3-2.5c-2.4,0-4.5,0.9-6.2,2.6c-1.7,1.7-2.6,3.8-2.6,6.2c0,2.4,0.9,4.4,2.6,6.1
			c1.7,1.7,3.8,2.6,6.2,2.6c2.5,0,4.6-0.8,6.3-2.6C401.6,292.9,402.5,290.8,402.5,288.4z"/>
		<path class="st1" d="M449.1,298.9h-12.9v-1.9l9.5-9.1c1.2-1.2,1.8-2.4,1.7-3.8c-0.1-1.2-0.5-2.2-1.4-3c-0.8-0.8-1.9-1.2-3.1-1.2
			c-1.2,0-2.3,0.4-3.2,1.3c-0.9,0.8-1.4,1.9-1.4,3.1v0.7h-2.1v-0.7c0-1.8,0.6-3.3,2-4.5c1.3-1.2,2.9-1.9,4.7-1.8
			c1.7,0,3.1,0.6,4.3,1.7c1.2,1.1,1.9,2.5,2.1,4.1c0,0.3,0,0.6,0,0.8c0,1.7-0.7,3.3-2.2,4.7l-8.2,7.9h10.1V298.9z"/>
		<path class="st1" d="M470.4,299.2c-2.9,0-5.5-1-7.7-3.1c-2.2-2.1-3.2-4.6-3.2-7.5c0-3,1.1-5.5,3.2-7.7c2.1-2.1,4.7-3.2,7.7-3.2
			c3,0,5.6,1,7.7,3c2.2,2.1,3.3,4.6,3.3,7.5c0,3-1.1,5.6-3.2,7.7C475.9,298.2,473.4,299.2,470.4,299.2z M479.3,288.4
			c0-2.4-0.9-4.5-2.7-6.1c-1.8-1.7-3.8-2.5-6.3-2.5c-2.4,0-4.5,0.9-6.2,2.6c-1.7,1.7-2.6,3.8-2.6,6.1c0,2.4,0.9,4.4,2.6,6.1
			c1.7,1.7,3.8,2.6,6.2,2.6c2.5,0,4.6-0.8,6.3-2.6C478.4,292.9,479.3,290.9,479.3,288.4z"/>
		<path class="st1" d="M504.2,298.9h-12.9v-1.9l9.5-9.1c1.2-1.2,1.8-2.4,1.7-3.8c-0.1-1.2-0.5-2.2-1.4-3c-0.8-0.8-1.9-1.2-3.1-1.2
			c-1.2,0-2.3,0.4-3.2,1.3c-0.9,0.8-1.4,1.9-1.4,3.1v0.7h-2.1v-0.7c0-1.8,0.6-3.3,2-4.5c1.3-1.2,2.9-1.9,4.7-1.8
			c1.7,0,3.1,0.6,4.3,1.7c1.2,1.1,1.9,2.5,2.1,4.1c0,0.3,0,0.6,0,0.8c0,1.7-0.7,3.3-2.2,4.7l-8.2,7.9h10.1V298.9z"/>
		<path class="st1" d="M525.5,299.2c-2.9,0-5.5-1-7.7-3.1c-2.2-2.1-3.2-4.6-3.2-7.5c0-3,1.1-5.5,3.2-7.7c2.1-2.1,4.7-3.2,7.7-3.2
			c3,0,5.6,1,7.7,3c2.2,2.1,3.3,4.6,3.3,7.5c0,3-1.1,5.6-3.2,7.7C531,298.2,528.5,299.2,525.5,299.2z M534.4,288.4
			c0-2.4-0.9-4.5-2.7-6.1c-1.8-1.7-3.8-2.5-6.3-2.5c-2.4,0-4.5,0.9-6.2,2.6c-1.7,1.7-2.6,3.8-2.6,6.1c0,2.4,0.9,4.4,2.6,6.1
			c1.7,1.7,3.8,2.6,6.2,2.6c2.5,0,4.6-0.8,6.3-2.6C533.5,292.9,534.4,290.9,534.4,288.4z"/>
	</g>
	<g>
		<path class="st2" d="M517.7,239.4l-52.5,0.4l-52.5,0.3c-17.5,0.1-35,0.4-52.5,0.2c-17.5-0.2-35-0.4-52.5-1v-0.2
			c17.5-0.6,35-0.8,52.5-1c17.5-0.1,35,0.1,52.5,0.2l52.5,0.3l52.5,0.4V239.4z"/>
	</g>
	<g>
		<path class="st2" d="M376,249.4c0.1,0,0.1,0,0.2,0.1c0.1,0.1,0.2,0.1,0.2,0.2c0.1,0.1,0.1,0.2,0.1,0.2c0,0.1-0.1,0.1-0.2,0.2
			c-0.8,0.3-1.7,0.5-2.5,0.6c-0.9,0.1-1.7,0.3-2.6,0.4c-0.9,0.2-1.8,0.4-2.6,0.5c-0.9,0.2-1.7,0.4-2.6,0.6c-0.9,0.2-1.7,0.4-2.6,0.7
			c-0.9,0.2-1.7,0.5-2.6,0.7c-0.8,0.3-1.6,0.5-2.4,0.6c-0.8,0.2-1.6,0.1-2.5-0.2c-0.1,0-0.2-0.1-0.4-0.2c-0.1-0.1-0.2-0.2-0.3-0.4
			c-0.1,0.1-0.3,0.1-0.4,0.2c-0.1,0-0.3,0.1-0.4,0.1c-0.3,0.1-0.6,0.1-0.9,0.2c-0.3,0-0.6,0-0.9-0.2c-0.3-0.1-0.6-0.3-0.8-0.6
			c-0.2-0.3-0.3-0.6-0.1-1c0.2-0.3,0.4-0.6,0.7-0.8c0.3-0.2,0.7-0.4,1-0.6c0.3-0.2,0.7-0.4,1-0.5c0.3-0.2,0.7-0.3,1.1-0.4
			c0.4-0.1,0.8-0.1,1.1-0.1c0.4,0.1,0.7,0.2,1,0.5c0.2-0.1,0.3-0.1,0.5,0c0.2,0,0.4,0.1,0.5,0.3c0.2,0.1,0.3,0.3,0.3,0.4
			c0.1,0.2,0,0.3-0.1,0.5c-0.3,0.3-0.6,0.5-0.8,0.8c-0.2,0.3-0.5,0.6-0.7,0.8c0.6,0,1.2-0.2,1.8-0.4c0.6-0.2,1.2-0.4,1.7-0.6
			c1.6-0.5,3.3-0.9,5-1.3c0.8-0.2,1.7-0.4,2.5-0.6c0.8-0.2,1.7-0.3,2.5-0.5c0.9-0.2,1.7-0.3,2.6-0.4
			C374.3,249.3,375.2,249.3,376,249.4z M353.8,252.4c0.5-0.2,1-0.3,1.4-0.6c0.5-0.2,0.9-0.5,1.4-0.8V251c-0.1,0-0.2,0.1-0.3,0.1
			c-0.1,0-0.2,0-0.2,0c-0.2,0.1-0.4,0.2-0.6,0.2c-0.2,0.1-0.4,0.2-0.6,0.3c-0.2,0.1-0.4,0.2-0.6,0.4
			C354.1,252.1,354,252.3,353.8,252.4L353.8,252.4C353.7,252.5,353.8,252.5,353.8,252.4z"/>
		<path class="st2" d="M394.3,250.1c0.1,0.2,0.1,0.4-0.1,0.6c-0.1,0.1-0.3,0.1-0.5,0c-0.2-0.1-0.4-0.1-0.6-0.2
			c-0.2-0.1-0.4-0.1-0.8-0.1c-0.3,0-0.6,0-0.9,0c-0.4,0-0.7,0-1,0.1c-0.3,0-0.7,0.1-1,0.1c-0.7,0.1-1.4,0.2-2,0.4
			c-0.7,0.2-1.3,0.3-2,0.4c-0.3,0-0.6,0.1-0.9,0.2c-0.3,0.1-0.7,0.1-1,0.1c-0.3,0-0.7,0-1-0.1c-0.3-0.1-0.6-0.2-0.9-0.4
			c-0.1-0.1-0.2-0.1-0.2-0.2c-0.1-0.1-0.1-0.2-0.2-0.3c-0.9,0.5-1.9,1.1-2.8,1.7c-0.9,0.6-1.7,1.2-2.6,1.9c-0.1,0.1-0.3,0.2-0.5,0.1
			c-0.2,0-0.4-0.1-0.6-0.2c-0.2-0.1-0.3-0.3-0.4-0.4c-0.1-0.2,0-0.3,0.1-0.5c0.4-0.4,0.7-0.8,0.9-1.2c0.1-0.1,0.1-0.3,0.2-0.4
			c0.1-0.1,0.1-0.2,0.1-0.4c0-0.1,0.1-0.1,0.1-0.2c0-0.1,0-0.1,0.1-0.2l0-0.2c0,0,0.1,0,0.1,0c-0.2-0.1-0.3-0.3-0.4-0.5
			c-0.1-0.2,0-0.3,0.2-0.4c0.2-0.1,0.5-0.1,0.7,0c0.2,0.1,0.4,0.2,0.6,0.4c0.2,0.2,0.3,0.4,0.3,0.7c0.7-0.5,1.5-0.9,2.2-1.4
			c0.8-0.4,1.5-0.8,2.3-1.3c0.2-0.1,0.4-0.1,0.6-0.1c0.2,0,0.4,0.1,0.6,0.2c0.1,0.1,0.2,0.2,0.3,0.4c0.1,0.2,0.1,0.3-0.1,0.5
			c-0.1,0.1-0.3,0.2-0.4,0.3c-0.1,0.1-0.2,0.2-0.2,0.4l-0.1,0.2c0.3,0,0.5-0.1,0.8-0.1c0.3,0,0.6,0,0.8-0.1c0.6-0.1,1.1-0.2,1.7-0.4
			c0.6-0.1,1.1-0.3,1.7-0.4c0.6-0.1,1.2-0.2,1.8-0.2c0.6-0.1,1.2-0.1,1.8,0c0.3,0,0.6,0,0.9,0c0.3,0,0.6,0.1,0.9,0.1
			c0.2,0,0.5,0.1,0.7,0.2C394,249.7,394.2,249.9,394.3,250.1z"/>
		<path class="st2" d="M412.4,249.3c0.1,0.1,0.2,0.2,0.4,0.3c0.1,0.1,0.2,0.3,0.1,0.4c0,0,0,0.1-0.1,0.2c0,0.1-0.1,0.1-0.2,0.1
			c-0.3,0.1-0.7,0.1-1,0c-0.4-0.1-0.7-0.1-1-0.2c-0.4,0-0.7-0.1-1.1-0.1c-0.4,0-0.7,0-1,0c-0.7,0-1.4,0-2.1,0c-0.7,0-1.4,0.1-2,0.1
			c-0.7,0.1-1.4,0.2-2.1,0.3c-0.7,0.1-1.4,0.2-2.1,0.4c-0.3,0.1-0.7,0.2-1,0.3c-0.3,0.1-0.7,0.2-1,0.3c-0.3,0.1-0.6,0.2-0.9,0.3
			c-0.3,0.1-0.6,0.1-0.9,0.1c-0.5,0.7-1,1.3-1.7,1.8c-0.7,0.5-1.4,0.9-2.2,1.2c-0.4,0.1-0.8,0.2-1.2,0.2c-0.4,0-0.8-0.1-1.1-0.4
			c-0.2-0.2-0.4-0.3-0.4-0.5c-0.1-0.2-0.1-0.4-0.1-0.6c0-0.2,0.1-0.4,0.2-0.6c0.1-0.2,0.2-0.4,0.4-0.5c0.5-0.6,1.2-1.2,1.9-1.7
			c0.7-0.5,1.5-0.8,2.4-1c-0.1-0.1-0.1-0.2-0.1-0.3c0-0.1,0-0.2,0.1-0.3c0.2-0.2,0.3-0.3,0.6-0.3c0.2,0,0.5,0,0.7,0
			c0.2,0.1,0.5,0.2,0.7,0.3c0.2,0.1,0.4,0.3,0.5,0.5c0.1,0.1,0.1,0.3,0.2,0.4c0,0.1,0,0.3,0,0.4c0,0,0.1,0,0.2-0.1
			c0.7-0.2,1.3-0.4,2-0.6c1.4-0.3,2.9-0.5,4.3-0.7c0.7-0.1,1.5-0.1,2.2-0.1c0.7,0,1.5,0,2.2,0c0.4,0,0.7,0,1.1,0
			c0.4,0,0.7,0.1,1.1,0.1l1.1,0.1c0.1,0,0.2,0,0.3,0c0.1,0,0.2,0,0.3,0c0,0,0.1,0,0.1,0c0,0,0.1,0,0.1,0.1
			C412.2,249.2,412.3,249.3,412.4,249.3z M391.6,253.6c0.5-0.2,1-0.4,1.4-0.8c0.5-0.3,0.9-0.7,1.2-1.1c0.4-0.4,0.7-0.9,0.9-1.3
			c-0.5,0.3-0.9,0.6-1.4,0.8c-0.5,0.3-0.9,0.6-1.3,1c-0.2,0.2-0.4,0.4-0.6,0.6c-0.2,0.2-0.4,0.4-0.5,0.7l-0.1,0.2c0.1,0,0.2,0,0.2,0
			C391.5,253.6,391.6,253.6,391.6,253.6z"/>
		<path class="st2" d="M431.4,249.8c0.1,0.2,0.1,0.3,0,0.4c-0.1,0.1-0.2,0.1-0.3,0.2c-0.5,0.1-1,0.1-1.5,0.1c-0.5,0-1,0-1.5,0.1
			c-0.5,0.1-0.9,0.1-1.4,0.2c-0.5,0.1-0.9,0.2-1.4,0.3c-0.9,0.2-1.8,0.5-2.7,0.8c-0.9,0.3-1.8,0.6-2.7,1c-0.5,0.2-0.9,0.3-1.3,0.5
			c-0.4,0.2-0.9,0.4-1.3,0.5c-0.4,0.1-0.8,0.2-1.2,0.1c-0.4-0.1-0.7-0.2-1-0.6c-0.1-0.1-0.2-0.3-0.3-0.4c0-0.2-0.1-0.3-0.1-0.5
			l-1.5,0.7c-0.2,0.1-0.5,0.2-0.7,0.3c-0.2,0.1-0.5,0.2-0.7,0.2c-0.3,0-0.5,0-0.7,0c-0.2-0.1-0.4-0.2-0.6-0.3
			c-0.2-0.2-0.3-0.3-0.3-0.5c-0.1-0.2,0-0.4,0.1-0.7c0.2-0.5,0.5-0.9,0.9-1.4c0.4-0.4,0.7-0.8,1.2-1.1c0.1,0,0.2-0.1,0.3,0
			c0.1,0,0.3,0.1,0.4,0.1c0.1,0.1,0.2,0.1,0.3,0.2c0.1,0.1,0.1,0.2,0,0.3c-0.4,0.6-0.8,1.2-1.2,1.9c0.1,0,0.1,0,0.1,0
			c0,0,0.1,0,0.1,0c0.8-0.3,1.6-0.7,2.3-1.1c0.8-0.4,1.5-0.8,2.3-1.3c0.1-0.1,0.3-0.1,0.5,0c0.2,0.1,0.4,0.1,0.6,0.3
			c0.2,0.1,0.3,0.3,0.4,0.4c0.1,0.2,0,0.3-0.2,0.4c-0.6,0.5-1.1,1-1.5,1.6c0,0.1-0.1,0.1-0.1,0.2s-0.1,0.1-0.1,0.2
			c0.1,0,0.1,0,0.1-0.1c0,0,0.1,0,0.1,0c0.8-0.3,1.5-0.6,2.3-0.9c0.8-0.3,1.5-0.6,2.3-0.8c0.8-0.3,1.6-0.5,2.3-0.8
			c0.8-0.2,1.6-0.4,2.4-0.6c0.8-0.1,1.6-0.3,2.4-0.4c0.8-0.1,1.6-0.1,2.4,0.1c0.1,0,0.3,0.1,0.4,0.2
			C431.3,249.6,431.4,249.7,431.4,249.8z"/>
		<path class="st2" d="M454.8,249.3c0.2,0,0.4,0.1,0.6,0.2c0.2,0.1,0.4,0.2,0.5,0.3c0.1,0.1,0.2,0.2,0.1,0.4c0,0.1-0.2,0.2-0.4,0.2
			c-1.1,0.1-2.2,0.2-3.3,0.4c-1.1,0.2-2.1,0.4-3.2,0.7c-1,0.3-2,0.5-3,0.9c-1,0.3-2,0.7-3,1.2c-0.5,0.2-1,0.4-1.5,0.7
			c-0.5,0.2-1,0.4-1.5,0.6c-0.4,0.2-0.9,0.3-1.3,0.2c-0.4-0.1-0.8-0.3-1.2-0.7c-0.2-0.3-0.4-0.6-0.4-0.9s0-0.7,0.1-1
			c0.1-0.2,0.2-0.5,0.3-0.7c0.2-0.3,0.3-0.5,0.4-0.8c-1.3,0.3-2.5,0.8-3.7,1.5s-2.3,1.3-3.4,2c-0.1,0.1-0.3,0.1-0.5,0
			c-0.2,0-0.4-0.1-0.5-0.2c-0.2-0.1-0.3-0.2-0.4-0.3c-0.1-0.1-0.1-0.3,0-0.5c0.2-0.4,0.5-0.9,0.7-1.4c0.3-0.5,0.5-1,0.6-1.4
			c-0.1,0-0.2,0-0.2-0.1c-0.1,0-0.2-0.1-0.2-0.1c-0.1,0-0.2-0.1-0.3-0.2c-0.1-0.1-0.2-0.2-0.2-0.3c0-0.3,0.1-0.4,0.4-0.4
			c0.3,0,0.5,0,0.8,0c0.3,0,0.5,0.1,0.8,0.1c0.1,0,0.2,0,0.3,0.1c0.1,0,0.2,0.1,0.3,0.2c0.1,0.1,0.2,0.2,0.3,0.3
			c0.1,0.1,0.1,0.2,0.1,0.3c-0.1,0.2-0.2,0.4-0.3,0.7c-0.1,0.3-0.2,0.5-0.3,0.7c1-0.5,2-1,3.1-1.5c1-0.4,2.1-0.7,3.3-0.9
			c0.2,0,0.4,0,0.6,0.1c0.2,0.1,0.4,0.3,0.5,0.4c0.2,0.4,0.3,0.8,0.2,1.2c-0.1,0.4-0.2,0.8-0.4,1.2c-0.1,0.1-0.2,0.3-0.2,0.4
			c-0.1,0.2-0.1,0.3-0.2,0.5c0,0.1-0.1,0.2-0.1,0.2c0,0.1,0,0.1,0,0.2v0.1h0.1c0.1,0,0.2-0.1,0.3-0.1c0.1,0,0.2-0.1,0.3-0.1l1.3-0.6
			c0.5-0.2,0.9-0.4,1.4-0.6c0.4-0.2,0.9-0.4,1.4-0.6c1.8-0.7,3.6-1.2,5.5-1.7C451,249.5,452.9,249.3,454.8,249.3z"/>
		<path class="st2" d="M474.7,250.3c0,0.2,0,0.3-0.2,0.4c-0.1,0.1-0.3,0.1-0.4,0.1c-0.9,0-1.8,0-2.7,0.2c-0.9,0.1-1.8,0.3-2.6,0.6
			c-0.9,0.3-1.7,0.6-2.6,0.9c-0.9,0.4-1.8,0.7-2.7,1.1c-0.4,0.2-0.8,0.4-1.3,0.6c-0.5,0.2-0.9,0.3-1.4,0.3c-0.4,0-0.9-0.1-1.2-0.3
			c-0.4-0.3-0.6-0.6-0.7-1.1c0,0,0-0.1,0-0.3l-0.3,0.2c-0.5,0.3-0.9,0.5-1.4,0.7c-0.5,0.2-1,0.4-1.5,0.6c-0.5,0.2-1,0.3-1.4,0.3
			c-0.5,0-1-0.1-1.4-0.5c-0.5-0.4-0.7-0.7-0.7-1.2c0-0.4,0.1-0.8,0.4-1.2c0.3-0.4,0.6-0.7,1-1.1c0.4-0.3,0.8-0.6,1.1-0.8
			c0.4-0.2,0.8-0.4,1.3-0.6c0.5-0.1,0.9-0.1,1.4,0c0.4,0.1,0.7,0.3,1,0.6c0.3,0.3,0.4,0.6,0.4,1c0.2-0.1,0.4-0.2,0.6-0.3
			c0.2-0.1,0.4-0.2,0.6-0.4c0.9-1.5,2.1-2.8,3.5-4c1.4-1.1,2.9-2.1,4.5-2.8c0.1,0,0.3-0.1,0.4,0c0.2,0,0.3,0.1,0.5,0.2
			c0.2,0.1,0.3,0.2,0.3,0.4c0.1,0.1,0.1,0.3,0,0.4c-0.3,0.5-0.6,1-1,1.4s-0.8,0.8-1.2,1.2c-0.5,0.4-1,0.8-1.5,1.2
			c-0.5,0.4-1,0.8-1.5,1.1c-0.5,0.3-0.9,0.7-1.4,1c-0.5,0.3-0.9,0.6-1.4,0.9c-0.3,0.4-0.5,0.8-0.6,1.2c0,0.1-0.1,0.2-0.1,0.3
			c0,0.1,0,0.2-0.1,0.3v0.1l0.7-0.3c0.4-0.2,0.8-0.3,1.2-0.5c0.8-0.4,1.7-0.7,2.6-1.1c0.9-0.4,1.9-0.8,2.9-1.1c1-0.3,2-0.5,3-0.6
			c1-0.1,1.9-0.1,2.8,0.1c0.2,0,0.4,0.1,0.6,0.2C474.6,249.9,474.7,250.1,474.7,250.3z M455.6,252.8c0.5-0.2,0.9-0.4,1.4-0.7
			c0.4-0.2,0.9-0.5,1.3-0.8c0.1,0,0.2-0.1,0.3-0.2c-0.2,0-0.3-0.1-0.4-0.3c-0.1-0.2-0.3-0.4-0.5-0.5c-0.2-0.1-0.4-0.1-0.6,0
			c-0.2,0-0.4,0.1-0.6,0.2c-0.2,0.1-0.4,0.2-0.6,0.3c-0.4,0.2-0.8,0.5-1.1,0.8c-0.4,0.3-0.6,0.6-0.8,1c-0.1,0.1-0.1,0.2-0.1,0.3
			c0,0.1,0,0.2,0,0.3h0c0.1,0,0.1,0,0.2,0c0.1,0,0.1,0,0.2,0c0.2-0.1,0.5-0.1,0.7-0.2C455.1,253,455.4,252.9,455.6,252.8z"/>
	</g>
	<g>
		<path class="st2" d="M310.2,210c0.8-3.5,3.6-4.8,7.7-4.8c1.7,0,3.6,0,5.8,0c6,0,9.7,3.4,9.7,8.9c0,5.5-3.7,8.9-9.7,8.9h-9.2l0-0.3
			h0.3c0.9,0,1.6-0.7,1.6-1.5v-14.8c-3.9,0.3-5.2,1.9-6,3.7L310.2,210z M320.3,221.9h3.1c3.6,0,5.9-3,5.9-7.8c0-4.8-2.3-7.8-5.9-7.8
			h-3.1V221.9z"/>
		<path class="st2" d="M369.2,217.8l-1.2,5.2h-14.7l0-0.3h0.3c0.9,0,1.6-0.7,1.6-1.6V207c-0.1-0.8-0.8-1.5-1.6-1.5h-0.3l0-0.3h7.1
			c1.1,0,2.5-0.3,3-0.5v4.4l-0.3,0v-0.3c0-1.5-1-2.5-2.5-2.6h-1.7v7.4h4c1.2,0,2.2-0.9,2.1-2.2v-0.2l0.2,0v5.9l-0.2,0v-0.2
			c0-1.2-0.9-2.1-2.1-2.2h-4.1v7.1h4.9c2.5,0,4.2-1.6,5-4.1H369.2z"/>
		<path class="st2" d="M398.8,213.8c6,3.8,3.1,11.7-4.3,11.7c-6.3,0-8.7-5.7-5.4-9.9l0.2,0.2c-2.6,4.1,0.2,8.5,4.7,8.5
			c4.7,0,6.3-4.8,2.2-7.5l-4.3-2.9c-1.9-1.2-2.6-2.8-2.5-4.6c0.2-2.5,2.1-4.4,5.3-4.4c0.8,0,2.3,0.1,3.5,0.3h1.6l-0.3,3.7h-0.2
			c0-1.8-1.5-2.9-3.6-2.9c-2,0-3.2,1-3.3,2.5c-0.1,1,0.8,1.7,1.8,2.3L398.8,213.8z"/>
		<path class="st2" d="M429,221.1c0,0.9,0.7,1.6,1.6,1.6h0.3l0,0.3h-7.7l0-0.3h0.3c0.9,0,1.6-0.7,1.6-1.6v-14.8l-2.4,0.1
			c-1.5,0.1-2.3,0.5-2.4,1.6c-0.1,1,0.6,1.8,1.9,1.8v0.1c-1.5,0.7-3.1-0.4-3-2c0.1-1.2,1-2.4,3.6-2.6c1.6-0.1,5.7-0.2,8.1-0.6l0,0.3
			c-1.5,0.2-2,1-2,2.4L429,221.1z"/>
		<path class="st2" d="M478,227.1c-5.8,2.3-10.5-0.5-12-4.8c-1.4,0.6-3.2,1-5.1,1c-6.1,0-10.4-3.8-10.4-9.2c0-5.5,4.4-9.2,10.6-9.2
			c2.8,0,5.5,0.6,7,1.4l0,4.3h-0.2c-0.8-3.2-3.4-4.7-6.5-4.7c-4,0-6.8,3.3-6.8,8.2c0,4.7,2.7,8.1,6.6,8.1c2.1,0,3.7-1,4.3-2.5v-3.9
			c0-0.7-0.5-1.2-1.3-1.2h-0.4v-0.3h7.1v0.3h-0.4c-0.8,0-1.3,0.4-1.3,1.1v4c0.1,4.5,3.3,8,8.7,7L478,227.1z"/>
		<path class="st2" d="M517.2,226.6c-4,2-7.3-0.5-9.6-3l-12-12.7v10.3c0,0.8,0.7,1.5,1.6,1.5h0.5l0,0.3H490l0-0.3h0.5
			c0.9,0,1.5-0.7,1.6-1.5v-14.2c-1.7-2-4.8-5.3-8.1-4.1l-0.1-0.2c3.8-2.2,7.4,0.6,9.6,3l11.3,12V207c0-0.9-0.7-1.5-1.6-1.5h-0.5
			l0-0.3h7.7l0,0.3h-0.5c-0.8,0-1.5,0.7-1.6,1.5v14.4l0.4,0.4c1.4,1.6,4.4,5.5,8.4,4.5L517.2,226.6z"/>
	</g>
</g>
</svg>
